REM GENRE Other
REM DATE 2013
REM DISCID E90F0110
REM COMMENT "ALLic (nnm-club.me)"
TITLE "Demo DTS CD-Audio #8"
FILE "Demo DTS CD-Audio #8.wav" WAVE
  TRACK 01 AUDIO
    TITLE "Independent woman N1"
    PERFORMER "Destiny's Child"
    INDEX 01 00:00:00
  TRACK 02 AUDIO
    TITLE "It's all coming back to me now"
    PERFORMER "Celine Dion"
    INDEX 01 03:39:39
  TRACK 03 AUDIO
    TITLE "Astor Piazzolla : Adios Nonino Concertgebouw Chamber Orchestra and Netherland..."
    PERFORMER "Carel Kraayenhof, Bandoneon"
    INDEX 01 09:10:06
  TRACK 04 AUDIO
    TITLE "Halt Mich"
    PERFORMER "Herbert Gronemeyer"
    INDEX 01 13:49:48
  TRACK 05 AUDIO
    TITLE "2-way"
    PERFORMER "Ginuwine"
    INDEX 01 17:49:27
  TRACK 06 AUDIO
    TITLE "Superstylin"
    PERFORMER "Groove Armada"
    INDEX 01 22:03:21
  TRACK 07 AUDIO
    TITLE "Florida Straights"
    PERFORMER "Spyro Gyra"
    INDEX 01 28:02:72
  TRACK 08 AUDIO
    TITLE "Love Come Home"
    PERFORMER "DJ Jean"
    INDEX 01 32:19:39
  TRACK 09 AUDIO
    TITLE "Relax"
    PERFORMER "Frankie Goes To Hollywood"
    INDEX 01 36:00:60
  TRACK 10 AUDIO
    TITLE "No Speech"
    PERFORMER "Guano Apes"
    INDEX 01 39:57:69
  TRACK 11 AUDIO
    TITLE "Man In The Box"
    PERFORMER "Alice In Chains"
    INDEX 01 43:30:03
  TRACK 12 AUDIO
    TITLE "Sing A Song"
    PERFORMER "Earth Wind and Fire"
    INDEX 01 47:57:03
  TRACK 13 AUDIO
    TITLE "Jump Up Behind Me"
    PERFORMER "James Taylor"
    INDEX 01 51:20:24
  TRACK 14 AUDIO
    TITLE "The Look Of Love"
    PERFORMER "Diana Krall"
    INDEX 01 54:44:69
  TRACK 15 AUDIO
    TITLE "Jerry Goldsmith : Theme from Papillon"
    PERFORMER "LSO, conducted by Jerry Goldsmith"
    INDEX 01 59:25:12
  TRACK 16 AUDIO
    TITLE "Johann Strauss : Long Live The Hungarians"
    PERFORMER "Budapest Festival Orchestra conducted by Ivan Fischer"
    INDEX 01 61:07:72
